HIERARCHY
ROOT Hips
{
  OFFSET 0.0 0.0 0.0
  CHANNELS 6 XPOSITION YPOSITION ZPOSITION ZROTATION XROTATION YROTATION 
  JOINT RightUpLeg
  {
    OFFSET -0.089458 -0.0866707 0.00101652
    CHANNELS 3 ZROTATION XROTATION YROTATION 
    JOINT RightLeg
    {
      OFFSET 0.0 -0.444227 0.013727
      CHANNELS 3 ZROTATION XROTATION YROTATION 
      JOINT RightFoot
      {
        OFFSET 0.00253549 -0.420924 -0.0146059
        CHANNELS 3 ZROTATION XROTATION YROTATION 
        JOINT RightToes
        {
          OFFSET 0.0004 -0.0441509 0.084991
          CHANNELS 3 ZROTATION XROTATION YROTATION 
          End Site
          {
            OFFSET -0.0008 -0.00137448 0.0977979
          }
        }
      }
    }
  }
  JOINT Spine
  {
    OFFSET 0.0 0.118905 0.0
    CHANNELS 3 ZROTATION XROTATION YROTATION 
    JOINT Spine1
    {
      OFFSET 0.0 0.256574 0.00127663
      CHANNELS 3 ZROTATION XROTATION YROTATION 
      JOINT HEad
      {
        OFFSET 0.0 0.0873416 0.00011341
        CHANNELS 3 ZROTATION XROTATION YROTATION 
        End Site
        {
          OFFSET -0.0029 0.127742 0.0251395
        }
      }
      JOINT LeftShoulder1
      {
        OFFSET 0.0899 -0.00362252 -0.0022
        CHANNELS 3 ZROTATION XROTATION YROTATION 
        JOINT LeftArm
        {
          OFFSET 0.102827 -3.37999e-005 0.00322123
          CHANNELS 3 ZROTATION XROTATION YROTATION 
          JOINT LeftForeArm
          {
            OFFSET 0.262597 0.00099144 -0.0142434
            CHANNELS 3 ZROTATION XROTATION YROTATION 
            JOINT LeftHand
            {
              OFFSET 0.220902 0.00085362 0.0102216
              CHANNELS 3 ZROTATION XROTATION YROTATION 
              End Site
              {
                OFFSET 0.13419 -0.006 0.0150291
              }
            }
          }
        }
      }
      JOINT RightShoulder
      {
        OFFSET -0.0899 -0.00362252 -0.0022
        CHANNELS 3 ZROTATION XROTATION YROTATION 
        JOINT RightArm
        {
          OFFSET -0.102827 -3.38e-005 0.00322123
          CHANNELS 3 ZROTATION XROTATION YROTATION 
          JOINT RightForeArm
          {
            OFFSET -0.26364 0.00099144 -0.0142434
            CHANNELS 3 ZROTATION XROTATION YROTATION 
            JOINT RightHand
            {
              OFFSET -0.220324 0.00085362 0.0102216
              CHANNELS 3 ZROTATION XROTATION YROTATION 
              End Site
              {
                OFFSET -0.133284 -0.006 0.0150291
              }
            }
          }
        }
      }
    }
  }
  JOINT LeftUpLeg
  {
    OFFSET 0.089458 -0.0866707 0.00101652
    CHANNELS 3 ZROTATION XROTATION YROTATION 
    JOINT LeftLeg
    {
      OFFSET 0.0 -0.444227 0.013727
      CHANNELS 3 ZROTATION XROTATION YROTATION 
      JOINT LeftFoot
      {
        OFFSET -0.00253549 -0.420924 -0.0146059
        CHANNELS 3 ZROTATION XROTATION YROTATION 
        JOINT LeftToes
        {
          OFFSET -0.0004 -0.0441509 0.084991
          CHANNELS 3 ZROTATION XROTATION YROTATION 
          End Site
          {
            OFFSET 0.0008 -0.00047448 0.0977979
          }
        }
      }
    }
  }
}
MOTION
Frames: 12
Frame Time: 0.033333
1.40457299172 1.31711543902 -1.09030988549 2.88628511776 1.40850442845 82.4807223793 1.43986321431 -16.8397801722 4.5092793641 -1.27801152992 55.2253237794 -11.6687805554 1.31233525821 -6.63455504982 -0.180145545668 0.0462047989973 0.000530889001377 0.662642008108 -9.05871938674 9.81294046452 -0.773898746055 2.96424639106 4.03825030903 -2.0563802079 -3.76594902295 16.867357061 -1.23332640466 -29.7855602156 -3.26974922669 12.6083447927 -77.0590616501 -37.0468880015 -41.4851893204 -169.76648284 70.3238940718 167.131942273 9.08023106753 8.85398958901 -9.25805162748 30.2724912318 -1.29020672596 -7.65056489877 46.5475274578 -12.8416000218 10.7460245599 5.18999992244 54.405520079 11.6253268919 -2.56619812071 9.77638102321 2.61807767632 -6.65008433868 -13.3524042566 -0.321189699081 0.364813877186 27.6959833674 12.1652567609 3.94688884492 -18.8377266177 0.495443352816 -1.32089002457e-009 8.75238980797e-006 -1.47004998836e-008 
1.4245960862 1.32337653659 -1.09083729491 3.02047229486 1.03796901385 82.2264822478 2.02449389664 -19.3837097418 4.73249720325 -1.15507858359 53.3638547589 -12.3574232794 1.17428902423 -7.19106221481 -0.171298729805 0.0462047989973 0.000530889001377 0.662642008108 -9.6553799532 10.3747055945 -1.07513644871 3.77948176213 3.94395912065 -2.64865237781 -3.70954361324 16.7772924791 -0.869614775928 -29.2526073849 -3.0455930903 12.1119112759 -77.1548755438 -35.2770391385 -42.5446609437 -171.570294818 72.4651788672 167.573609626 9.0973278848 8.8340078706 -9.50913962665 30.196785415 -1.37229770238 -7.88544656659 45.274472404 -13.6231034364 9.25642262736 4.90334157873 54.0972633965 11.7687309824 -2.67086351266 9.76652847534 2.81952535471 -6.34428865868 -10.6777918238 0.0955283664232 0.344257008816 25.4935444733 11.9244336823 3.70736350223 -19.0609184167 0.479949762375 -1.32089002457e-009 8.75238980797e-006 -1.47004998836e-008 
1.44444706542 1.32863934146 -1.09128434531 2.96133438259 0.653333314043 82.1610217148 2.43324784818 -21.5281193487 4.52608162946 -0.992060004065 49.5097121989 -12.4945700629 1.47382825095 -7.38692984209 -0.174583850693 0.0462047989973 0.000530889001377 0.662642008108 -10.0601258644 10.8549046054 -1.44723309514 4.56565233041 3.81795621773 -3.28063099869 -3.61964935914 16.7997057448 -0.714382932227 -28.7723050674 -2.85589845992 11.6853873066 -77.4386084321 -33.8867165669 -43.748266634 -174.899492944 74.2907791493 169.825290768 9.24045022999 8.79708899059 -9.76359832418 29.9997276273 -1.43713081847 -8.08810937832 44.1359310958 -13.8746072233 7.74996464176 4.5337873635 53.0915965884 12.2595534988 -2.53929016359 9.77764375444 2.67602542813 -5.95239588288 -8.49261964795 0.45327184389 0.299970489124 23.845074902 11.6072251831 3.41907786595 -19.4368195853 0.465440519587 -1.32089002457e-009 8.75238980797e-006 -1.47004998836e-008 
1.46486043633 1.3321377561 -1.09160126885 2.9339752061 0.387007856522 82.0246501578 2.59068989841 -23.1444221441 3.94237067478 -0.924452550505 44.3457647524 -11.4928997692 1.81284191563 -7.53909194265 -0.172970338563 0.0462047989973 0.000530889001377 0.662642008108 -10.2483991751 11.279190834 -1.72421423474 4.97416722533 3.58689604075 -3.70210382969 -3.4736322944 16.9296774146 -0.770042463938 -28.3856104924 -2.68731231573 11.2882485186 -77.6372576539 -32.7264176911 -44.8530258266 -178.549901207 76.0101221785 172.519253981 9.2040231236 8.792617778 -9.89186500793 29.9228231123 -1.49207520804 -8.24995156448 43.0480049044 -15.0367997691 6.2833176944 4.45971737705 53.1999097282 12.1858079463 -2.58615017049 9.7754939524 2.5641379649 -5.81793592511 -6.29457000417 0.443742689461 0.331366600903 22.240376598 11.7041148315 3.27789123906 -19.8970001655 0.467277360226 -1.32089002457e-009 8.75238980797e-006 -1.47004998836e-008 
1.48619239539 1.33385239024 -1.09149438252 2.82709171021 0.256150983617 81.9201892447 2.63704212344 -24.3150568037 3.40901251499 -0.888727566216 38.4323645539 -10.1432808562 2.30742658561 -8.03266617151 -0.166295162671 0.0462047989973 0.000530889001377 0.662642008108 -10.4052963043 11.4133212352 -1.95890145561 5.32369703347 3.43978678607 -4.0268865818 -3.35292961828 16.9891820226 -0.909283767575 -28.1727869205 -2.60272447829 11.0893559713 -77.7567381531 -31.5789151747 -45.9281829793 178.113178911 77.2488794373 175.082309788 9.29553826697 8.769816899 -10.0379217731 29.7974140089 -1.53073205102 -8.37431821021 42.0130980565 -16.5028230348 4.92711447903 4.59634122413 53.486258579 11.7894341396 -2.50580964349 9.78332903315 2.42344033687 -5.91967372723 -4.22477551818 0.0103940821608 0.419171777613 20.7761035683 12.1417592026 3.12343867726 -20.2890837597 0.463044990818 -1.32089002457e-009 8.75238980797e-006 -1.47004998836e-008 
1.50848315341 1.33419185366 -1.09092597326 2.66209632453 0.144151515959 82.2022692272 2.53737749718 -25.0723898864 2.9894512832 -0.790675611647 32.4018710074 -9.55690826216 2.71493381418 -8.68654323264 -0.154784212846 0.0462047989973 0.000530889001377 0.662642008108 -10.4758717952 11.3868644974 -2.28910438971 5.67288362459 3.32545710333 -4.43072663911 -3.25985783211 16.9907461359 -1.03320911905 -27.8630361341 -2.49771885753 10.8484466616 -77.8109357041 -30.4741354915 -46.6156517646 173.611182663 78.1204457264 179.023151354 9.31132881055 8.771035234 -9.99281264254 29.7826368947 -1.61814940106 -8.6196099401 40.8724735406 -17.6998410076 3.84683980707 4.79178239147 54.4474676858 11.3397677818 -2.40418816803 9.79123497711 2.33033205187 -6.02858749685 -2.43015291872 -0.333655301244 0.70003206445 19.8666314369 12.110100422 2.85714390223 -20.7642702656 0.448938409026 -1.32089002457e-009 8.75238980797e-006 -1.47004998836e-008 
1.53192365081 1.33331263415 -1.08979387421 2.50374393816 0.117671859723 82.6530617124 2.38461476686 -25.8131700057 2.48258166423 -0.832112288268 27.6562863079 -9.28474998317 2.57451408947 -9.41297653956 -0.143280239953 0.0462047989973 0.000530889001377 0.662642008108 -10.6237223388 11.2948080616 -2.56069554956 6.14603217274 3.22202776217 -4.80592472504 -3.12387388837 16.9565439637 -1.18222260912 -27.7024788773 -2.41107556003 10.627078523 -77.8465892916 -29.4708148534 -47.1434068213 170.018270933 78.6735612755 -177.65785118 9.63515405552 8.72599696661 -10.0123392996 29.7938349898 -1.69005763264 -8.81814134115 39.7916814818 -18.7196104488 2.86900666016 5.03367524848 55.3845696399 10.8761917437 -2.31541385151 9.79886429841 2.18197799522 -6.11183725755 -0.745367871953 -0.291902968498 1.00070435551 19.3019762831 11.5672062509 2.56896328011 -21.324057202 0.431704481049 -1.32089002457e-009 8.75238980797e-006 -1.47004998836e-008 
1.55644366018 1.3315967561 -1.08794321399 2.36347554482 0.146849867568 83.0581260812 2.19914439504 -26.7672466874 1.83725066385 -0.795868102881 25.2643779663 -8.55083335025 2.94411483536 -10.0430871037 -0.126623156135 0.0462047989973 0.000530889001377 0.662642008108 -10.7849438315 11.1223492001 -2.69753881647 6.61881317133 3.22924791245 -5.05859988942 -2.91920193381 16.7735922241 -1.36262967633 -27.6819934324 -2.35655144055 10.4703991061 -77.7607747949 -28.5737702512 -47.4139403691 167.364619497 79.0228434893 -175.187931833 9.87510457748 8.68462651081 -10.1299722326 29.8510856354 -1.72639850789 -8.91078346574 38.9564552142 -20.0031754561 2.0135470244 5.3178807005 56.3030900644 10.2786833801 -2.21971180218 9.80611710554 2.07881994064 -6.07345927838 0.842940806145 -0.0334832581731 1.13899049988 19.0627608603 10.8047658943 2.13480465339 -21.8559496459 0.39197412442 -1.32089002457e-009 8.75238980797e-006 -1.47004998836e-008 
1.58216684167 1.32982856098 -1.08546297019 2.23966065031 0.0494579500639 83.5428987575 2.25369113953 -27.7361790307 1.38063042644 -0.676466684514 25.0159588635 -8.05819400353 3.03569230421 -10.3661610279 -0.111335651978 0.0462047989973 0.000530889001377 0.662642008108 -10.6090886585 10.9356400027 -2.83958860851 6.92785703316 3.32157840965 -5.28547700242 -2.61862750655 16.5070116483 -1.55641559002 -27.6972128014 -2.32529179915 10.3750197832 -77.5547694593 -27.902350703 -47.396390198 166.297894213 79.2027643324 -174.293696146 9.63385119694 8.71138377688 -10.2081095967 29.9493823029 -1.75916975553 -8.98712107499 38.4485247815 -21.4099519535 1.4273574581 5.68768080254 57.1234709158 9.51020001352 -2.02240193777 9.81865135644 2.06930121826 -5.76288374663 2.31837068309 0.277592574928 1.23999213568 19.2216635038 9.89015489931 1.64275611804 -22.298433206 0.339195838641 -1.32089002457e-009 8.75238980797e-006 -1.47004998836e-008 
1.60903178904 1.32893629268 -1.08264570338 2.13861163008 -0.287323433381 84.0702644935 2.72582391048 -28.591347743 1.27937863497 -0.43411020174 25.9813070649 -9.00243692043 1.56352357579 -9.8444728866 -0.152184392052 0.0462047989973 0.000530889001377 0.662642008108 -9.97153318818 10.7248731716 -2.97395956039 7.17919049226 3.49696571471 -5.47739891479 -2.29735910021 16.3280726449 -1.79958665289 -27.8531426051 -2.34200313762 10.3935552091 -77.8536175563 -27.7774692317 -47.3454643076 167.892852667 78.4575223921 -175.846594295 9.36395797943 8.74738399645 -10.2174532955 30.0123942131 -1.79814697708 -9.08547579904 38.2437727857 -22.4605596988 1.11731286684 6.09076057443 57.7212934682 8.76230454469 -1.87840938379 9.82911947512 2.01372482276 -5.217438073 3.76300222321 0.46578042822 1.42595524161 19.5693098872 9.00030163254 0.826248997753 -22.446467311 0.233365846072 -1.32089002457e-009 8.75238980797e-006 -1.47004998836e-008 
1.63696214539 1.32859881707 -1.0795465719 2.14991047051 -0.68462235727 84.5033121473 3.45509302656 -29.1695830204 1.55339835395 -0.305616440886 27.6389547029 -10.2709609974 -0.130953696172 -8.8132381191 -0.183059541824 0.0462047989973 0.000530889001377 0.662642008108 -9.00220554778 10.5383261912 -3.01657972736 7.25983795088 3.61764811371 -5.49615034538 -2.03143785115 16.3220928143 -2.01846198583 -28.1070156139 -2.38104641991 10.4577513033 -78.7601749044 -28.3433794328 -47.2091200713 171.268741966 76.772774271 -178.847424247 9.33975605788 8.75715714338 -10.1297835486 30.1033245215 -1.82248550241 -9.13877261891 38.3515497557 -23.209355045 1.21357381774 6.69773088455 58.2458929776 7.80671156093 -1.87191856964 9.83211963571 1.87125838917 -4.61506832217 5.07431786224 0.472835373302 1.56131721124 20.403154749 8.40405685385 -0.5049984673 -22.1777249803 0.0572367651312 -1.32089002457e-009 8.75238980797e-006 -1.47004998836e-008 
1.66552847235 1.32822240244 -1.07590332487 2.34463489488 -0.933248553495 84.9135606296 3.95441016385 -29.3264553902 1.70948578557 -0.355147612045 30.0159424963 -10.4964357872 -0.78863557288 -8.17162722395 -0.180448248446 0.0462047989973 0.000530889001377 0.662642008108 -8.15503327936 10.4778218142 -3.03669975711 7.27202130082 3.65723418259 -5.46201434057 -1.75924488761 16.407907311 -2.1625779101 -28.3026322317 -2.41092529587 10.50578717 -79.6453810812 -29.3095677475 -46.6861598074 174.62744651 75.0566414308 178.416452971 9.43218217773 8.75651339805 -9.96991614089 30.2401024747 -1.82378793411 -9.12141027804 38.9419034962 -23.9706103639 1.89789698071 7.48487219347 58.9838949174 6.57021424096 -1.93542289378 9.82878138075 1.78966687034 -4.0219428055 5.8828137576 0.431884413845 1.4608409664 22.41158895 7.92661894691 -1.94133378218 -21.1993345327 -0.119368774865 -1.32089002457e-009 8.75238980797e-006 -1.47004998836e-008 
